<?xml version="1.0" standalone="no"?><!DOCTYPE svg PUBLIC "-//W3C//DTD SVG 1.1//EN" "http://www.w3.org/Graphics/SVG/1.1/DTD/svg11.dtd"><svg t="1565595597448" class="icon" viewBox="0 0 1024 1024" version="1.1" xmlns="http://www.w3.org/2000/svg" p-id="527" width="200" height="200" xmlns:xlink="http://www.w3.org/1999/xlink"><defs><style type="text/css"></style></defs><path d="M518.82763 849.877372a327.22049 327.22049 0 1 1 231.200169-95.87582 327.58174 327.58174 0 0 1-231.272419 95.87582z m0-620.122204a292.901715 292.901715 0 1 0 292.684964 292.829465A293.118465 293.118465 0 0 0 518.75538 229.755168z" fill="#1677b3" p-id="528"></path><path d="M398.314542 505.31687l68.92655 68.926551 172.244126-189.439639 51.658788 51.658788-223.902914 241.170676L346.655754 557.047908l51.658788-51.731038z" fill="#1677b3" p-id="529"></path><path d="M467.674593 702.415014L322.235236 557.047908l76.079306-76.079306L466.590842 549.100402l172.316376-189.295138L715.275524 436.029069zM371.004022 557.047908L466.735342 652.779228l200.493897-215.883158-27.16602-27.16602-172.244126 189.511889-69.504551-69.504551z" fill="#1677b3" p-id="530"></path><path d="M489.566359 1022.121499A508.279122 508.279122 0 0 1 2.239752 493.684612c0.4335-10.693008 1.300501-21.675016 2.817752-35.330276l34.246525 4.046003c-1.372751 12.643759-2.239752 23.120017-2.601002 32.946024A473.815847 473.815847 0 0 0 491.30036 987.730473zM714.336273 979.782968L700.825513 948.209694a473.743597 473.743597 0 0 0 229.249418-654.079729l30.489523-16.039511a508.206872 508.206872 0 0 1-245.65018 701.620264zM109.74783 260.967191l-28.900021-18.423763a508.351372 508.351372 0 0 1 730.375785-137.853101l-20.446765 27.74402a473.888097 473.888097 0 0 0-681.028999 128.532844z" fill="#1677b3" p-id="531"></path><path d="M199.699146 794.750582a416.810555 416.810555 0 0 1 23.842518-588.982431c6.430255-5.924504 13.51076-11.921259 22.108516-18.857264l21.675016 26.87702c-8.019756 6.430255-14.450011 11.921259-20.302265 17.340012a382.34728 382.34728 0 0 0-21.675016 540.285896z" fill="#1677b3" p-id="532"></path></svg>